<svg xmlns="http://www.w3.org/2000/svg" viewBox="0 0 64 64" role="img" aria-label="arXiv">
  <rect width="64" height="64" rx="14" fill="#b31b1b"/>
  <path fill="#fff" d="M11.3 40.8c0-5.5 4.4-8.4 11.6-8.4h4.8v-1.7c0-4-2.2-5.9-6.5-5.9-3.1 0-5.9 1-8.5 2.7l-1.8-4.2c3.2-2 7-3.1 11.1-3.1 7.7 0 11.7 3.6 11.7 10.5v17.6h-5.6l-.2-4.1c-1.8 3-4.8 4.6-8.6 4.6-4.8 0-8-3.1-8-8Zm16.4-3.8h-4.2c-4.1 0-6.1 1.2-6.1 3.8 0 2.2 1.6 3.6 4.1 3.6 3.7 0 6.2-2.7 6.2-6.6V37Z"/>
  <path fill="#fff" d="M38.4 48.3 47 34.6l-8.1-13.8h6.5l5.1 9 5.2-9h6.1l-8.1 13.4 8.5 14.1h-6.6l-5.5-9.3-5.7 9.3h-6Z"/>
</svg>
